<svg width="1748" height="432" viewBox="0 0 1748 432" fill="none" xmlns="http://www.w3.org/2000/svg">
<path d="M115.681 11.1331C103.403 -1.14539 83.0554 -4.30271 71.1278 6.92331L5.52576 72.5253C-4.64782 82.6989 -0.0872461 99.538 13.5945 103.046L24.8205 105.853C53.2363 113.22 82.003 96.3806 89.7209 68.3156L96.7372 41.303C97.7896 37.444 101.649 35.3392 105.157 36.3916C109.016 37.444 111.12 41.303 110.068 44.8111L104.104 67.2632C116.032 60.5977 129.714 56.7388 144.448 56.7388H160.936L115.681 11.1331Z" fill="#FFBB00"/>
<path d="M312.838 11.1331C325.116 -1.14539 345.464 -4.30271 357.391 6.92331L422.642 72.5253C432.816 82.6989 428.255 99.538 414.574 103.046L403.348 105.853C374.932 113.22 346.165 96.3806 338.447 68.3156L331.431 41.303C330.379 37.444 326.52 35.3392 323.012 36.3916C319.503 37.444 317.048 41.303 318.1 44.8111L324.064 67.2632C312.136 60.5977 298.455 56.7388 283.721 56.7388H267.232L312.838 11.1331Z" fill="#FFBB00"/>
<path d="M353.181 175.664V140.232C353.181 102.344 321.959 71.1221 284.071 71.1221H145.149C107.262 71.1221 76.0392 102.344 76.0392 140.232V175.664C65.164 190.048 58.4985 208.29 58.4985 228.286V280.558C58.4985 323.708 89.7209 359.841 131.117 367.208C131.468 367.208 131.468 367.208 131.818 367.208C132.871 367.559 133.923 367.559 135.327 367.559C137.431 367.91 139.536 367.91 141.641 368.261C142.343 368.261 143.044 368.261 143.395 368.261C144.097 368.261 144.448 368.261 145.149 368.261H146.903H173.214C184.44 377.733 198.473 382.995 214.26 382.995C230.046 382.995 244.079 377.382 255.305 368.261H281.966H283.721C284.422 368.261 284.773 368.261 285.475 368.261C286.176 368.261 286.878 368.261 287.229 368.261C289.334 368.261 291.438 367.91 293.543 367.559C294.596 367.559 295.648 367.208 297.051 367.208C297.402 367.208 297.402 367.208 297.753 367.208C338.798 359.841 370.371 323.708 370.371 280.558V228.286C370.371 208.641 364.057 190.399 353.181 175.664ZM279.16 132.865C291.789 132.865 302.314 143.39 302.314 156.019C302.314 168.648 291.789 179.173 279.16 179.173C266.531 179.173 256.006 168.648 256.006 156.019C256.357 143.039 266.531 132.865 279.16 132.865ZM149.359 132.865C161.988 132.865 172.513 143.39 172.513 156.019C172.513 168.648 161.988 179.173 149.359 179.173C136.73 179.173 126.205 168.648 126.205 156.019C126.556 143.039 136.73 132.865 149.359 132.865ZM214.26 368.612C188.299 368.612 166.549 348.264 165.146 321.953C181.283 321.953 196.368 316.34 208.296 306.167V343.353C208.296 346.861 210.751 349.668 214.61 349.668C218.469 349.668 220.925 347.212 220.925 343.353V306.167C232.853 315.99 247.938 321.953 264.075 321.953C261.97 347.914 240.22 368.612 214.26 368.612ZM332.483 250.388C332.483 284.767 304.418 312.832 270.039 312.832C245.833 312.832 225.135 299.151 214.61 278.803C204.086 298.8 183.388 312.832 159.182 312.832C124.802 312.832 96.7372 284.767 96.7372 250.388V230.04C96.7372 226.181 99.5437 223.024 103.753 223.024C107.963 223.024 110.77 225.831 110.77 230.04V250.388C110.77 277.049 132.52 298.8 159.182 298.8C183.739 298.8 203.735 280.558 207.243 256.702C206.892 256.351 206.892 256.351 206.542 256.001L178.477 213.552C174.618 207.939 179.178 201.274 186.545 201.274H242.675C249.692 201.274 254.252 207.939 250.744 213.552L222.679 256.001C222.679 256.351 222.328 256.351 221.977 256.702C225.486 280.558 245.482 298.8 270.039 298.8C296.701 298.8 318.451 277.049 318.451 250.388V230.04C318.451 226.181 321.257 223.024 325.467 223.024C329.677 223.024 332.483 225.831 332.483 230.04V250.388Z" fill="#FFBB00"/>
<path d="M542.249 129.8C562.449 129.8 578.449 131.9 590.249 136.1C602.049 140.1 610.449 146.1 615.449 154.1C620.449 161.9 622.949 171.6 622.949 183.2C622.949 192.6 621.149 200.6 617.549 207.2C613.949 213.6 609.649 218.7 604.649 222.5C599.849 226.3 595.349 228.9 591.149 230.3V231.8C595.949 233.2 601.049 235.6 606.449 239C611.849 242.4 616.449 247.5 620.249 254.3C624.249 260.9 626.249 269.9 626.249 281.3C626.249 294.3 623.049 305.5 616.649 314.9C610.449 324.3 601.449 331.5 589.649 336.5C578.049 341.5 564.149 344 547.949 344H467.849V129.8H542.249ZM540.449 212C547.649 212 552.749 210 555.749 206C558.749 202 560.249 197.2 560.249 191.6C560.249 185.8 558.549 181.4 555.149 178.4C551.949 175.2 546.949 173.6 540.149 173.6H529.049V212H540.449ZM529.049 254.3V299.3H543.149C550.749 299.3 556.049 297.2 559.049 293C562.049 288.6 563.549 283.1 563.549 276.5C563.549 272.7 562.849 269.1 561.449 265.7C560.249 262.3 558.149 259.6 555.149 257.6C552.149 255.4 547.849 254.3 542.249 254.3H529.049ZM738.679 175.1C758.079 175.1 773.279 180.3 784.279 190.7C795.479 201.1 801.079 215.9 801.079 235.1V344H759.379L747.679 322.1H746.479C742.079 327.9 737.579 332.7 732.979 336.5C728.379 340.1 723.079 342.7 717.079 344.3C711.079 346.1 703.779 347 695.179 347C686.179 347 678.079 345.1 670.879 341.3C663.679 337.3 657.979 331.4 653.779 323.6C649.779 315.6 647.779 305.5 647.779 293.3C647.779 275.5 653.579 262.3 665.179 253.7C676.779 244.9 693.279 240.1 714.679 239.3L740.179 238.4V236C740.179 228.6 738.679 223.4 735.679 220.4C732.879 217.2 728.979 215.6 723.979 215.6C718.579 215.6 711.979 216.8 704.179 219.2C696.379 221.4 688.579 224.3 680.779 227.9L664.279 190.1C673.879 185.1 684.679 181.4 696.679 179C708.879 176.4 722.879 175.1 738.679 175.1ZM730.579 270.5C722.779 270.9 717.179 272.8 713.779 276.2C710.579 279.4 708.979 284 708.979 290C708.979 295.6 710.179 299.8 712.579 302.6C714.979 305.2 718.079 306.5 721.879 306.5C726.879 306.5 731.279 304.3 735.079 299.9C738.879 295.5 740.779 289.8 740.779 282.8V269.9L730.579 270.5ZM894.589 344H833.989V116H894.589V344ZM1085.83 178.1V344H1040.53L1033.03 323.3H1029.43C1026.23 328.9 1022.13 333.5 1017.13 337.1C1012.33 340.5 1006.93 343 1000.93 344.6C995.125 346.2 989.125 347 982.925 347C972.925 347 963.825 344.9 955.625 340.7C947.425 336.5 940.825 329.9 935.825 320.9C930.825 311.9 928.325 300.3 928.325 286.1V178.1H988.925V268.7C988.925 279.5 990.025 287.7 992.225 293.3C994.425 298.9 998.325 301.7 1003.93 301.7C1009.73 301.7 1014.13 299.8 1017.13 296C1020.33 292 1022.43 286.2 1023.43 278.6C1024.63 271 1025.23 261.7 1025.23 250.7V178.1H1085.83ZM1278.98 218.6H1369.58V334.1C1359.18 337.9 1346.68 341 1332.08 343.4C1317.68 345.8 1303.08 347 1288.28 347C1269.28 347 1252.28 343 1237.28 335C1222.28 327 1210.48 314.8 1201.88 298.4C1193.28 282 1188.98 261.3 1188.98 236.3C1188.98 213.9 1192.98 194.5 1200.98 178.1C1208.98 161.7 1220.88 149.1 1236.68 140.3C1252.48 131.3 1271.98 126.8 1295.18 126.8C1308.78 126.8 1321.48 128.1 1333.28 130.7C1345.08 133.1 1355.08 136.3 1363.28 140.3L1344.38 185.6C1336.58 181.8 1328.78 179 1320.98 177.2C1313.18 175.2 1304.78 174.2 1295.78 174.2C1283.98 174.2 1274.88 177.1 1268.48 182.9C1262.08 188.7 1257.68 196.4 1255.28 206C1253.08 215.6 1251.98 226.2 1251.98 237.8C1251.98 251 1253.68 262.2 1257.08 271.4C1260.68 280.6 1265.58 287.6 1271.78 292.4C1278.18 297 1285.48 299.3 1293.68 299.3C1294.88 299.3 1296.78 299.2 1299.38 299C1302.18 298.8 1304.88 298.5 1307.48 298.1C1310.28 297.7 1312.28 297.3 1313.48 296.9V263.3H1278.98V218.6ZM1477.91 175.1C1493.51 175.1 1507.01 177.9 1518.41 183.5C1529.81 189.1 1538.51 197.5 1544.51 208.7C1550.71 219.9 1553.81 234 1553.81 251V276.5H1459.61C1460.01 285.1 1462.71 292.2 1467.71 297.8C1472.91 303.4 1480.71 306.2 1491.11 306.2C1500.91 306.2 1509.81 305.2 1517.81 303.2C1526.01 301.2 1534.41 298 1543.01 293.6V334.7C1535.61 338.9 1527.21 342 1517.81 344C1508.61 346 1496.71 347 1482.11 347C1466.31 347 1452.11 344.1 1439.51 338.3C1426.91 332.3 1416.91 323 1409.51 310.4C1402.11 297.8 1398.41 281.7 1398.41 262.1C1398.41 242.1 1401.71 225.7 1408.31 212.9C1415.11 200.1 1424.41 190.6 1436.21 184.4C1448.21 178.2 1462.11 175.1 1477.91 175.1ZM1480.61 214.1C1475.21 214.1 1470.71 216.2 1467.11 220.4C1463.51 224.6 1461.41 231.3 1460.81 240.5H1499.81C1499.81 235.5 1499.01 231.1 1497.41 227.3C1495.81 223.3 1493.61 220.1 1490.81 217.7C1488.01 215.3 1484.61 214.1 1480.61 214.1ZM1736.13 260.6C1736.13 274.4 1734.33 286.7 1730.73 297.5C1727.13 308.3 1721.83 317.4 1714.83 324.8C1708.03 332 1699.63 337.5 1689.63 341.3C1679.83 345.1 1668.73 347 1656.33 347C1644.73 347 1634.03 345.1 1624.23 341.3C1614.43 337.5 1606.03 332 1599.03 324.8C1592.03 317.4 1586.53 308.3 1582.53 297.5C1578.73 286.7 1576.83 274.4 1576.83 260.6C1576.83 242.2 1580.03 226.7 1586.43 214.1C1592.83 201.3 1602.03 191.6 1614.03 185C1626.23 178.4 1640.63 175.1 1657.23 175.1C1672.43 175.1 1685.93 178.4 1697.73 185C1709.73 191.6 1719.13 201.3 1725.93 214.1C1732.73 226.7 1736.13 242.2 1736.13 260.6ZM1638.33 260.6C1638.33 270 1638.93 278 1640.13 284.6C1641.33 291.2 1643.33 296.2 1646.13 299.6C1648.93 302.8 1652.53 304.4 1656.93 304.4C1661.53 304.4 1665.03 302.8 1667.43 299.6C1670.03 296.2 1671.83 291.2 1672.83 284.6C1674.03 278 1674.63 270 1674.63 260.6C1674.63 251.2 1674.03 243.3 1672.83 236.9C1671.83 230.5 1669.93 225.7 1667.13 222.5C1664.53 219.3 1661.03 217.7 1656.63 217.7C1650.03 217.7 1645.33 221.3 1642.53 228.5C1639.73 235.7 1638.33 246.4 1638.33 260.6Z" fill="#FFBB00"/>
</svg>
